<svg xmlns="http://www.w3.org/2000/svg" viewBox="0 0 540 410" fill="none">
  <title>Pay Code Auditor illustrated payroll ledger</title>
  <defs><pattern id="grid" width="24" height="24" patternUnits="userSpaceOnUse"><path d="M24 0H0V24" stroke="#466052" stroke-width=".6"/></pattern></defs>
  <rect x="1" y="1" width="538" height="408" rx="3" fill="#29483B"/>
  <rect x="1" y="1" width="538" height="408" rx="3" fill="url(#grid)"/>
  <circle cx="465" cy="78" r="36" stroke="#94A28B" stroke-dasharray="3 5"/>
  <path d="M454 78h22m-11-11v22" stroke="#CAD0AD"/>
  <text x="28" y="36" fill="#D5D8BC" font-family="monospace" font-size="11" letter-spacing="2">THE PAYROLL COMPANION</text>
  <g transform="translate(108 55) rotate(-7 145 150)">
    <rect x="9" y="11" width="285" height="302" fill="#152F25" opacity=".45"/>
    <path d="M0 0h285v298l-9 5-9-5-9 5-9-5-9 5-9-5-9 5-9-5-9 5-9-5-9 5-9-5-9 5-9-5-9 5-9-5-9 5-9-5-9 5-9-5-9 5-9-5-9 5-9-5-9 5-9-5-9 5-9-5-9 5-9-5-15 5V0Z" fill="#F4EFDE"/>
    <text x="24" y="34" fill="#314338" font-family="monospace" font-size="10" letter-spacing="2">PAY CODE / REGISTER</text>
    <path d="M24 47h237" stroke="#354A3C"/>
    <text x="24" y="72" fill="#314338" font-family="Georgia,serif" font-size="21">A little more clarity.</text>
    <text x="24" y="96" fill="#687367" font-family="monospace" font-size="9">CODE</text>
    <text x="174" y="96" fill="#687367" font-family="monospace" font-size="9">REVIEW</text>
    <path d="M24 108h237M24 144h237M24 180h237M24 216h237M24 252h237" stroke="#C9C9B4"/>
    <text x="24" y="131" fill="#314338" font-family="monospace" font-size="11">ORD_HRS</text>
    <text x="24" y="167" fill="#314338" font-family="monospace" font-size="11">BASE_PAY</text>
    <rect x="16" y="184" width="253" height="29" fill="#E9D7AF"/>
    <text x="24" y="203" fill="#314338" font-family="monospace" font-size="11">SITE_ALLOW</text>
    <text x="24" y="239" fill="#314338" font-family="monospace" font-size="11">OTHER_01</text>
    <path d="m180 125 4 4 8-9m-12 41 4 4 8-9" stroke="#567556" stroke-width="2"/>
    <circle cx="186" cy="199" r="7" stroke="#A84A2D"/><path d="M186 195v5m0 2v1" stroke="#A84A2D"/>
    <path d="M24 273h90" stroke="#314338" stroke-width="3"/><path d="M24 281h64" stroke="#A8AD96" stroke-width="2"/>
    <text x="185" y="280" fill="#6B7568" font-family="monospace" font-size="8">SAMPLE ONLY</text>
  </g>
  <g transform="rotate(-12 382 282)">
    <path d="m407 307 51 69" stroke="#182F26" stroke-width="22" stroke-linecap="round"/>
    <path d="m401 301 51 69" stroke="#D5754F" stroke-width="18" stroke-linecap="round"/>
    <circle cx="371" cy="260" r="61" fill="#EEE8D0" fill-opacity=".7" stroke="#D5754F" stroke-width="14"/>
    <path d="M339 235c5-10 14-16 27-17" stroke="#FFF8E6" stroke-width="5" stroke-linecap="round"/>
    <path d="m351 260 13 13 27-28" stroke="#385341" stroke-width="5" stroke-linecap="round" stroke-linejoin="round"/>
  </g>
  <text x="27" y="381" fill="#CAD0AD" font-family="monospace" font-size="10" letter-spacing="1">LESS GUESSWORK. MORE CERTAINTY.</text>
  <path d="M40 280v46m-23-23h46m-39-16 32 32m-32 0 32-32" stroke="#DDBD72" stroke-width="4"/>
</svg>
